# xmcd CD database file
#
# Track frame offsets:
#	150
#	23748
#	49963
#
# Disc length: 977 seconds
#
# Revision: 4
# Processed by: cddbd v1.5PL3 Copyright (c) Steve Scherf et al.
# Submitted via: CDex 1.51
#
DISCID=1e03cf03
DTITLE=ZOO - YA-YA-YA
DYEAR=1992
DGENRE=JPop
TTITLE0=YA-YA-YA
TTITLE1=Kiss me
TTITLE2=YA-YA-YA(ORIGINAL KARAOKE)
EXTD=YEAR: 1992
EXTT0=
EXTT1=
EXTT2=
PLAYORDER=
